<?xml version="1.0" encoding="utf-8"?>
<svg viewBox="0 140 500 210" xmlns="http://www.w3.org/2000/svg" xmlns:xlink="http://www.w3.org/1999/xlink">
  <defs>
    <path id="text-path-0" d="M 46.426998138427734 283.58991622924805 Q 239.95547103881836 225.2102508544922 433.483943939209 283.58991622924805"/>
  </defs>
  <text style="fill: rgb(51, 51, 51); font-family: Helvetica; font-size: 52.3px; font-weight: 700; letter-spacing: -1px; white-space: pre;"><textPath xlink:href="#text-path-0">Royal Sandwich</textPath></text>
  <path fill="rgb(255, 208, 0)" d="M 234.872 199.614 C 234.872 199.03 234.91 198.553 234.984 198.238 C 235.024 198.067 235.095 197.887 235.171 197.78 C 235.26 197.654 235.444 197.543 235.581 197.543 C 235.964 197.543 236.499 198.268 237.05 199.43 L 240.877 207.548 L 243.168 198.358 C 243.307 197.803 243.455 197.354 243.604 197.058 C 243.764 196.736 244.038 196.473 244.27 196.473 C 244.504 196.473 244.778 196.736 244.938 197.058 C 245.085 197.354 245.234 197.803 245.374 198.358 L 247.611 207.334 L 251.34 199.425 C 251.891 198.263 252.426 197.538 252.809 197.538 C 252.946 197.538 253.129 197.649 253.219 197.774 C 253.295 197.882 253.366 198.061 253.406 198.232 C 253.48 198.548 253.518 199.025 253.518 199.608 L 253.518 215.472 C 253.515 216.639 253.368 217.587 253.077 218.206 C 252.772 218.853 252.22 219.217 251.607 219.243 L 244.392 219.243 C 244.35 219.246 244.308 219.248 244.261 219.248 L 236.783 219.248 C 236.17 219.223 235.619 218.858 235.313 218.21 C 235.022 217.592 234.875 216.645 234.872 215.478 L 234.872 199.614 Z M 235.487 215.478 C 235.485 216.576 235.606 217.329 235.847 217.843 C 236.077 218.329 236.326 218.53 236.783 218.505 L 244.261 218.505 C 244.298 218.505 244.327 218.504 244.36 218.501 L 251.607 218.501 C 252.064 218.525 252.313 218.324 252.543 217.838 C 252.784 217.324 252.905 216.571 252.902 215.472 L 252.902 199.608 C 252.904 199.06 252.874 198.686 252.814 198.436 C 252.796 198.357 252.784 198.317 252.77 198.289 C 252.614 198.352 252.35 198.778 251.875 199.792 L 247.436 209.207 L 244.785 198.571 C 244.655 198.048 244.534 197.686 244.412 197.442 C 244.303 197.223 244.307 197.216 244.27 197.216 C 244.235 197.216 244.239 197.223 244.13 197.442 C 244.008 197.686 243.887 198.048 243.757 198.571 L 241.053 209.421 L 236.515 199.797 C 236.04 198.784 235.776 198.357 235.62 198.294 C 235.606 198.323 235.594 198.362 235.575 198.441 C 235.516 198.692 235.486 199.065 235.487 199.614 L 235.487 215.478 Z" style="stroke: rgb(255, 208, 0); stroke-linecap: round; stroke-linejoin: round; stroke-width: 2px;"/>
</svg>